# xmcd
#
# Track frame offsets:
#	150
#	14917
#	25935
#	40802
#	51622
#	63947
#	81197
#	95477
#	107560
#	121560
#	132307
#	145605
#	158355
#	171470
#	185592
#	198395
#
# Disc length: 2814
#
# Revision: 6
# Processed by: cddbd v1.5.1PL0 Copyright (c) Steve Scherf et al.
# Submitted via: CDex 1.40Beta8
# Normalized: r4:DSETVAR1,TDELIM( - ),TSWAP
#
DISCID=d90afc10
DTITLE=Various Artist - The Ultimate Classic Country Collection
DYEAR=1900
DGENRE=Country
TTITLE0=Waylon Jennings - Luckenbach, Texas
TTITLE1=Roger Miller - King Of The Road
TTITLE2=George Jones - He Stopped Loving Her Today
TTITLE3=Faron Young - Hello Walls
TTITLE4=Johnny Cash - I Walk The Line
TTITLE5=Ray Price - For The Good Times
TTITLE6=Eddie Rabbit - I Love A Rainy Night
TTITLE7=Eddy Arnold - Make The World Go Away
TTITLE8=Dolly Parton - I Will Always Love You
TTITLE9=Leroy Van Dyke - Walk On By
TTITLE10=Charlie Rich - Behind Closed Doors
TTITLE11=Hank Snow - I'm Movin' On
TTITLE12=Lynn Anderson - Rose Garden
TTITLE13=Emmylou Harris - Sweet Dreams
TTITLE14=Dwight Yoakam and Buck Owens - Streets Of Bakersfield
TTITLE15=The Browns - The Three Bells
EXTD=ID3G: 2
EXTT0=
EXTT1=
EXTT2=
EXTT3=
EXTT4=
EXTT5=
EXTT6=
EXTT7=
EXTT8=
EXTT9=
EXTT10=
EXTT11=
EXTT12=
EXTT13=
EXTT14=
EXTT15=
PLAYORDER=
